<?xml version="1.0" standalone="no"?><!DOCTYPE svg PUBLIC "-//W3C//DTD SVG 1.1//EN" "http://www.w3.org/Graphics/SVG/1.1/DTD/svg11.dtd"><svg t="1559637383437" class="icon" style="" viewBox="0 0 1024 1024" version="1.1" xmlns="http://www.w3.org/2000/svg" p-id="19813" xmlns:xlink="http://www.w3.org/1999/xlink" width="16" height="16"><defs><style type="text/css"></style></defs><path d="M511.119445 65.654302c-247.102864 0-447.419146 200.316282-447.419146 447.418123 0 247.102864 200.316282 447.419146 447.419146 447.419146s447.419146-200.316282 447.419146-447.419146C958.537568 265.970584 758.221286 65.654302 511.119445 65.654302zM685.081499 300.004725c43.516096 0 78.794577 35.277458 78.794577 78.794577s-35.278481 78.794577-78.794577 78.794577-78.794577-35.277458-78.794577-78.794577S641.564379 300.004725 685.081499 300.004725zM337.157391 300.004725c43.517119 0 78.794577 35.277458 78.794577 78.794577s-35.277458 78.794577-78.794577 78.794577-78.794577-35.277458-78.794577-78.794577S293.640272 300.004725 337.157391 300.004725zM784.3422 742.091422l-546.44551 0 0-42.97886 546.44551 0L784.3422 742.091422z" p-id="19814" fill="#ffe11c"></path></svg>