<?xml version="1.0" standalone="no"?><!DOCTYPE svg PUBLIC "-//W3C//DTD SVG 1.1//EN" "http://www.w3.org/Graphics/SVG/1.1/DTD/svg11.dtd"><svg t="1559637093756" class="icon" style="" viewBox="0 0 1024 1024" version="1.1" xmlns="http://www.w3.org/2000/svg" p-id="14071" xmlns:xlink="http://www.w3.org/1999/xlink" width="16" height="16"><defs><style type="text/css"></style></defs><path d="M512 0C229.216 0 0 229.216 0 512s229.216 512 512 512 512-229.216 512-512A512 512 0 0 0 512 0zM311.392 310.016a76.8 76.8 0 1 1 0 153.6 76.8 76.8 0 0 1 0-153.6zM512 787.968c-158.976 0-268.032-137.984-268.032-193.984h536.064c0 56-109.056 193.984-268.032 193.984z m200.608-324.352a76.8 76.8 0 1 1 0-153.6 76.8 76.8 0 0 1 0 153.6z" fill="#2ab06f" p-id="14072"></path></svg>